Oswald--500.ufo
<glyph name="five" format="1">
  <advance width="1021"/>
  <unicode hex="0035"/>
  <outline>
    <contour>
      <point x="520" y="-23" type="curve" smooth="yes"/>
      <point x="880" y="-23"/>
      <point x="954" y="244"/>
      <point x="954" y="587" type="curve" smooth="yes"/>
      <point x="954" y="896"/>
      <point x="849" y="1103"/>
      <point x="584" y="1091" type="curve" smooth="yes"/>
      <point x="488" y="1088"/>
      <point x="406" y="1056"/>
      <point x="363" y="1008" type="curve"/>
      <point x="380" y="1399" type="line"/>
      <point x="890" y="1399" type="line"/>
      <point x="890" y="1658" type="line"/>
      <point x="137" y="1658" type="line"/>
      <point x="124" y="737" type="line"/>
      <point x="368" y="737" type="line"/>
      <point x="390" y="818"/>
      <point x="443" y="881"/>
      <point x="525" y="881" type="curve" smooth="yes"/>
      <point x="666" y="881"/>
      <point x="679" y="749"/>
      <point x="679" y="564" type="curve" smooth="yes"/>
      <point x="679" y="352"/>
      <point x="678" y="197"/>
      <point x="531" y="195" type="curve" smooth="yes"/>
      <point x="394" y="193"/>
      <point x="378" y="321"/>
      <point x="378" y="479" type="curve"/>
      <point x="99" y="479" type="line"/>
      <point x="99" y="173"/>
      <point x="187" y="-23"/>
    </contour>
  </outline>
</glyph>
<glyph name="six" format="1">
  <advance width="1042"/>
  <unicode hex="0036"/>
  <outline>
    <contour>
      <point x="537" y="-20" type="curve" smooth="yes"/>
      <point x="859" y="-20"/>
      <point x="969" y="225"/>
      <point x="969" y="546" type="curve" smooth="yes"/>
      <point x="969" y="816"/>
      <point x="882" y="1024"/>
      <point x="612" y="1021" type="curve" smooth="yes"/>
      <point x="506" y="1020"/>
      <point x="427" y="979"/>
      <point x="389" y="913" type="curve"/>
      <point x="389" y="1110" type="line" smooth="yes"/>
      <point x="389" y="1355"/>
      <point x="430" y="1454"/>
      <point x="538" y="1454" type="curve" smooth="yes"/>
      <point x="658" y="1454"/>
      <point x="681" y="1375"/>
      <point x="681" y="1236" type="curve"/>
      <point x="956" y="1236" type="line"/>
      <point x="956" y="1241"/>
      <point x="956" y="1255"/>
      <point x="956" y="1260" type="curve" smooth="yes"/>
      <point x="951" y="1527"/>
      <point x="822" y="1677"/>
      <point x="537" y="1677" type="curve" smooth="yes"/>
      <point x="195" y="1677"/>
      <point x="104" y="1412"/>
      <point x="104" y="1087" type="curve" smooth="yes"/>
      <point x="104" y="528" type="line" smooth="yes"/>
      <point x="104" y="223"/>
      <point x="231" y="-20"/>
    </contour>
    <contour>
      <point x="539" y="201" type="curve" smooth="yes"/>
      <point x="420" y="201"/>
      <point x="389" y="330"/>
      <point x="389" y="459" type="curve" smooth="yes"/>
      <point x="389" y="709" type="line"/>
      <point x="414" y="756"/>
      <point x="463" y="806"/>
      <point x="538" y="806" type="curve" smooth="yes"/>
      <point x="684" y="806"/>
      <point x="685" y="657"/>
      <point x="685" y="489" type="curve" smooth="yes"/>
      <point x="685" y="329"/>
      <point x="659" y="201"/>
    </contour>
  </outline>
</glyph>
<glyph name="seven" format="1">
  <advance width="880"/>
  <unicode hex="0037"/>
  <outline>
    <contour>
      <point x="196" y="0" type="line"/>
      <point x="471" y="0" type="line"/>
      <point x="798" y="1491" type="line"/>
      <point x="798" y="1658" type="line"/>
      <point x="81" y="1658" type="line"/>
      <point x="81" y="1440" type="line"/>
      <point x="519" y="1440" type="line"/>
    </contour>
  </outline>
</glyph>
<glyph name="less" format="1">
  <advance width="789"/>
  <unicode hex="003C"/>
  <outline>
    <contour>
      <point x="672" y="121" type="line"/>
      <point x="672" y="382" type="line"/>
      <point x="267" y="673" type="line"/>
      <point x="672" y="961" type="line"/>
      <point x="672" y="1223" type="line"/>
      <point x="62" y="795" type="line"/>
      <point x="62" y="547" type="line"/>
    </contour>
  </outline>
</glyph>
<glyph name="B" format="1">
  <advance width="1137"/>
  <unicode hex="0042"/>
  <outline>
    <contour>
      <point x="124" y="0" type="line"/>
      <point x="600" y="0" type="line" smooth="yes"/>
      <point x="904" y="0"/>
      <point x="1067" y="166"/>
      <point x="1065" y="481" type="curve" smooth="yes"/>
      <point x="1063" y="724"/>
      <point x="967" y="855"/>
      <point x="772" y="892" type="curve"/>
      <point x="928" y="915"/>
      <point x="1015" y="1025"/>
      <point x="1016" y="1235" type="curve" smooth="yes"/>
      <point x="1019" y="1561"/>
      <point x="822" y="1658"/>
      <point x="530" y="1658" type="curve" smooth="yes"/>
      <point x="124" y="1658" type="line"/>
    </contour>
    <contour>
      <point x="426" y="213" type="line"/>
      <point x="426" y="769" type="line"/>
      <point x="521" y="769" type="line" smooth="yes"/>
      <point x="707" y="769"/>
      <point x="776" y="681"/>
      <point x="776" y="484" type="curve" smooth="yes"/>
      <point x="776" y="298"/>
      <point x="723" y="213"/>
      <point x="537" y="213" type="curve" smooth="yes"/>
    </contour>
    <contour>
      <point x="426" y="982" type="line"/>
      <point x="426" y="1446" type="line"/>
      <point x="468" y="1446" type="line" smooth="yes"/>
      <point x="660" y="1446"/>
      <point x="753" y="1421"/>
      <point x="753" y="1231" type="curve" smooth="yes"/>
      <point x="753" y="1057"/>
      <point x="703" y="982"/>
      <point x="520" y="982" type="curve" smooth="yes"/>
    </contour>
  </outline>
</glyph>
<glyph name="M" format="1">
  <advance width="1397"/>
  <unicode hex="004D"/>
  <outline>
    <contour>
      <point x="121" y="0" type="line"/>
      <point x="352" y="0" type="line"/>
      <point x="370" y="1146" type="line"/>
      <point x="612" y="0" type="line"/>
      <point x="789" y="0" type="line"/>
      <point x="1028" y="1142" type="line"/>
      <point x="1048" y="0" type="line"/>
      <point x="1276" y="0" type="line"/>
      <point x="1248" y="1658" type="line"/>
      <point x="945" y="1658" type="line"/>
      <point x="698" y="493" type="line"/>
      <point x="458" y="1658" type="line"/>
      <point x="148" y="1658" type="line"/>
    </contour>
  </outline>
</glyph>
<glyph name="S" format="1">
  <advance width="1010"/>
  <unicode hex="0053"/>
  <outline>
    <contour>
      <point x="542" y="-20" type="curve" smooth="yes"/>
      <point x="790" y="-20"/>
      <point x="957" y="146"/>
      <point x="957" y="387" type="curve" smooth="yes"/>
      <point x="957" y="607"/>
      <point x="842" y="750"/>
      <point x="712" y="867" type="curve" smooth="yes"/>
      <point x="496" y="1055" type="line" smooth="yes"/>
      <point x="419" y="1123"/>
      <point x="366" y="1181"/>
      <point x="366" y="1297" type="curve" smooth="yes"/>
      <point x="366" y="1386"/>
      <point x="413" y="1445"/>
      <point x="504" y="1450" type="curve" smooth="yes"/>
      <point x="640" y="1459"/>
      <point x="663" y="1327"/>
      <point x="670" y="1178" type="curve"/>
      <point x="928" y="1229" type="line"/>
      <point x="909" y="1474"/>
      <point x="820" y="1680"/>
      <point x="509" y="1677" type="curve" smooth="yes"/>
      <point x="248" y="1675"/>
      <point x="84" y="1528"/>
      <point x="84" y="1268" type="curve" smooth="yes"/>
      <point x="84" y="1075"/>
      <point x="158" y="969"/>
      <point x="274" y="867" type="curve" smooth="yes"/>
      <point x="492" y="678" type="line" smooth="yes"/>
      <point x="595" y="587"/>
      <point x="669" y="512"/>
      <point x="669" y="367" type="curve" smooth="yes"/>
      <point x="669" y="277"/>
      <point x="629" y="212"/>
      <point x="533" y="212" type="curve" smooth="yes"/>
      <point x="398" y="212"/>
      <point x="351" y="352"/>
      <point x="345" y="541" type="curve"/>
      <point x="82" y="486" type="line"/>
      <point x="96" y="161"/>
      <point x="239" y="-20"/>
    </contour>
  </outline>
</glyph>
<glyph name="U" format="1">
  <advance width="1154"/>
  <unicode hex="0055"/>
  <outline>
    <contour>
      <point x="578" y="-20" type="curve" smooth="yes"/>
      <point x="952" y="-20"/>
      <point x="1043" y="198"/>
      <point x="1043" y="557" type="curve" smooth="yes"/>
      <point x="1043" y="1658" type="line"/>
      <point x="750" y="1658" type="line"/>
      <point x="750" y="526" type="line" smooth="yes"/>
      <point x="750" y="356"/>
      <point x="735" y="206"/>
      <point x="578" y="206" type="curve" smooth="yes"/>
      <point x="420" y="206"/>
      <point x="404" y="356"/>
      <point x="404" y="526" type="curve" smooth="yes"/>
      <point x="404" y="1658" type="line"/>
      <point x="111" y="1658" type="line"/>
      <point x="111" y="557" type="line" smooth="yes"/>
      <point x="111" y="198"/>
      <point x="203" y="-20"/>
    </contour>
  </outline>
</glyph>
<glyph name="Z" format="1">
  <advance width="870"/>
  <unicode hex="005A"/>
  <outline>
    <contour>
      <point x="72" y="0" type="line"/>
      <point x="822" y="0" type="line"/>
      <point x="822" y="209" type="line"/>
      <point x="360" y="209" type="line"/>
      <point x="821" y="1509" type="line"/>
      <point x="821" y="1658" type="line"/>
      <point x="94" y="1658" type="line"/>
      <point x="94" y="1449" type="line"/>
      <point x="512" y="1449" type="line"/>
      <point x="72" y="198" type="line"/>
    </contour>
  </outline>
</glyph>
<glyph name="b" format="1">
  <advance width="978"/>
  <unicode hex="0062"/>
  <outline>
    <contour>
      <point x="611" y="-19" type="curve" smooth="yes"/>
      <point x="818" y="-19"/>
      <point x="891" y="183"/>
      <point x="891" y="414" type="curve" smooth="yes"/>
      <point x="891" y="802" type="line" smooth="yes"/>
      <point x="891" y="950"/>
      <point x="849" y="1200"/>
      <point x="629" y="1202" type="curve" smooth="yes"/>
      <point x="536" y="1203"/>
      <point x="455" y="1159"/>
      <point x="390" y="1094" type="curve"/>
      <point x="390" y="1658" type="line"/>
      <point x="110" y="1658" type="line"/>
      <point x="110" y="0" type="line"/>
      <point x="390" y="0" type="line"/>
      <point x="390" y="87" type="line"/>
      <point x="452" y="27"/>
      <point x="528" y="-19"/>
    </contour>
    <contour>
      <point x="514" y="182" type="curve" smooth="yes"/>
      <point x="465" y="182"/>
      <point x="424" y="197"/>
      <point x="390" y="219" type="curve"/>
      <point x="390" y="962" type="line"/>
      <point x="425" y="988"/>
      <point x="466" y="1007"/>
      <point x="507" y="1008" type="curve" smooth="yes"/>
      <point x="594" y="1010"/>
      <point x="611" y="914"/>
      <point x="611" y="813" type="curve" smooth="yes"/>
      <point x="611" y="405" type="line" smooth="yes"/>
      <point x="611" y="287"/>
      <point x="601" y="182"/>
    </contour>
  </outline>
</glyph>
<glyph name="f" format="1">
  <advance width="624"/>
  <unicode hex="0066"/>
  <outline>
    <contour>
      <point x="165" y="0" type="line"/>
      <point x="444" y="0" type="line"/>
      <point x="444" y="985" type="line"/>
      <point x="610" y="985" type="line"/>
      <point x="610" y="1184" type="line"/>
      <point x="444" y="1184" type="line"/>
      <point x="444" y="1275" type="line" smooth="yes"/>
      <point x="444" y="1350"/>
      <point x="464" y="1398"/>
      <point x="534" y="1398" type="curve" smooth="yes"/>
      <point x="557" y="1398"/>
      <point x="588" y="1390"/>
      <point x="610" y="1388" type="curve"/>
      <point x="610" y="1596" type="line"/>
      <point x="549" y="1603"/>
      <point x="512" y="1607"/>
      <point x="457" y="1607" type="curve" smooth="yes"/>
      <point x="202" y="1607"/>
      <point x="165" y="1468"/>
      <point x="165" y="1247" type="curve" smooth="yes"/>
      <point x="165" y="1184" type="line"/>
      <point x="37" y="1184" type="line"/>
      <point x="37" y="985" type="line"/>
      <point x="165" y="985" type="line"/>
    </contour>
  </outline>
</glyph>
<glyph name="brokenbar" format="1">
  <advance width="442"/>
  <unicode hex="00A6"/>
  <outline>
    <contour>
      <point x="117" y="-333" type="line"/>
      <point x="325" y="-333" type="line"/>
      <point x="325" y="502" type="line"/>
      <point x="117" y="502" type="line"/>
    </contour>
    <contour>
      <point x="117" y="823" type="line"/>
      <point x="325" y="823" type="line"/>
      <point x="325" y="1658" type="line"/>
      <point x="117" y="1658" type="line"/>
    </contour>
  </outline>
</glyph>
<glyph name="logicalnot" format="1">
  <advance width="899"/>
  <unicode hex="00AC"/>
  <outline>
    <contour>
      <point x="687" y="473" type="line"/>
      <point x="827" y="473" type="line"/>
      <point x="827" y="942" type="line"/>
      <point x="88" y="942" type="line"/>
      <point x="88" y="743" type="line"/>
      <point x="687" y="743" type="line"/>
    </contour>
  </outline>
</glyph>
<glyph name="degree" format="1">
  <advance width="1017"/>
  <unicode hex="00B0"/>
  <outline>
    <contour>
      <point x="508" y="1090" type="curve" smooth="yes"/>
      <point x="386" y="1090"/>
      <point x="320" y="1178"/>
      <point x="320" y="1300" type="curve" smooth="yes"/>
      <point x="320" y="1422"/>
      <point x="386" y="1508"/>
      <point x="508" y="1508" type="curve" smooth="yes"/>
      <point x="630" y="1508"/>
      <point x="696" y="1422"/>
      <point x="696" y="1300" type="curve" smooth="yes"/>
      <point x="696" y="1178"/>
      <point x="630" y="1090"/>
    </contour>
    <contour>
      <point x="508" y="921" type="curve" smooth="yes"/>
      <point x="743" y="921"/>
      <point x="890" y="1069"/>
      <point x="890" y="1300" type="curve" smooth="yes"/>
      <point x="890" y="1531"/>
      <point x="742" y="1677"/>
      <point x="508" y="1677" type="curve" smooth="yes"/>
      <point x="274" y="1677"/>
      <point x="128" y="1531"/>
      <point x="128" y="1300" type="curve" smooth="yes"/>
      <point x="128" y="1070"/>
      <point x="273" y="921"/>
    </contour>
  </outline>
</glyph>
<glyph name="cedilla" format="1">
  <advance width="547"/>
  <unicode hex="00B8"/>
  <outline>
    <contour>
      <point x="81" y="-504" type="line"/>
      <point x="285" y="-566"/>
      <point x="523" y="-516"/>
      <point x="516" y="-316" type="curve" smooth="yes"/>
      <point x="512" y="-203"/>
      <point x="388" y="-138"/>
      <point x="260" y="-126" type="curve"/>
      <point x="260" y="0" type="line"/>
      <point x="139" y="0" type="line"/>
      <point x="139" y="-204" type="line"/>
      <point x="223" y="-220"/>
      <point x="323" y="-243"/>
      <point x="322" y="-325" type="curve" smooth="yes"/>
      <point x="320" y="-402"/>
      <point x="170" y="-401"/>
      <point x="81" y="-375" type="curve"/>
    </contour>
  </outline>
</glyph>
<glyph name="Thorn" format="1">
  <advance width="1082"/>
  <unicode hex="00DE"/>
  <outline>
    <contour>
      <point x="117" y="0" type="line"/>
      <point x="419" y="0" type="line"/>
      <point x="419" y="474" type="line"/>
      <point x="583" y="475" type="line" smooth="yes"/>
      <point x="898" y="476"/>
      <point x="1052" y="608"/>
      <point x="1052" y="964" type="curve" smooth="yes"/>
      <point x="1052" y="1278"/>
      <point x="913" y="1439"/>
      <point x="616" y="1439" type="curve" smooth="yes"/>
      <point x="419" y="1439" type="line"/>
      <point x="419" y="1658" type="line"/>
      <point x="117" y="1658" type="line"/>
    </contour>
    <contour>
      <point x="419" y="702" type="line"/>
      <point x="419" y="1206" type="line"/>
      <point x="558" y="1206" type="line" smooth="yes"/>
      <point x="714" y="1206"/>
      <point x="768" y="1137"/>
      <point x="768" y="958" type="curve" smooth="yes"/>
      <point x="768" y="760"/>
      <point x="699" y="702"/>
      <point x="536" y="702" type="curve" smooth="yes"/>
    </contour>
  </outline>
</glyph>
<glyph name="divide" format="1">
  <advance width="809"/>
  <unicode hex="00F7"/>
  <outline>
    <contour>
      <point x="310" y="349" type="line"/>
      <point x="506" y="349" type="line"/>
      <point x="506" y="594" type="line"/>
      <point x="310" y="594" type="line"/>
    </contour>
    <contour>
      <point x="50" y="760" type="line"/>
      <point x="759" y="760" type="line"/>
      <point x="759" y="934" type="line"/>
      <point x="50" y="934" type="line"/>
    </contour>
    <contour>
      <point x="310" y="1080" type="line"/>
      <point x="506" y="1080" type="line"/>
      <point x="506" y="1325" type="line"/>
      <point x="310" y="1325" type="line"/>
    </contour>
  </outline>
</glyph>
<glyph name="hbar" format="1">
  <advance width="980"/>
  <unicode hex="0127"/>
  <outline>
    <contour>
      <point x="112" y="0" type="line"/>
      <point x="392" y="0" type="line"/>
      <point x="392" y="935" type="line"/>
      <point x="436" y="968"/>
      <point x="483" y="992"/>
      <point x="522" y="993" type="curve" smooth="yes"/>
      <point x="588" y="994"/>
      <point x="601" y="951"/>
      <point x="601" y="884" type="curve" smooth="yes"/>
      <point x="601" y="0" type="line"/>
      <point x="880" y="0" type="line"/>
      <point x="880" y="946" type="line" smooth="yes"/>
      <point x="880" y="1073"/>
      <point x="832" y="1202"/>
      <point x="686" y="1202" type="curve" smooth="yes"/>
      <point x="572" y="1202"/>
      <point x="476" y="1149"/>
      <point x="392" y="1069" type="curve"/>
      <point x="392" y="1395" type="line"/>
      <point x="638" y="1395" type="line"/>
      <point x="638" y="1536" type="line"/>
      <point x="392" y="1536" type="line"/>
      <point x="392" y="1658" type="line"/>
      <point x="112" y="1658" type="line"/>
      <point x="112" y="1536" type="line"/>
      <point x="-2" y="1536" type="line"/>
      <point x="-2" y="1395" type="line"/>
      <point x="112" y="1395" type="line"/>
    </contour>
  </outline>
</glyph>
<glyph name="kgreenlandic" format="1">
  <advance width="954"/>
  <unicode hex="0138"/>
  <outline>
    <contour>
      <point x="111" y="0" type="line"/>
      <point x="391" y="0" type="line"/>
      <point x="391" y="432" type="line"/>
      <point x="476" y="560" type="line"/>
      <point x="662" y="0" type="line"/>
      <point x="950" y="0" type="line"/>
      <point x="693" y="701" type="line"/>
      <point x="948" y="1184" type="line"/>
      <point x="656" y="1184" type="line"/>
      <point x="391" y="686" type="line"/>
      <point x="391" y="1184" type="line"/>
      <point x="111" y="1184" type="line"/>
    </contour>
  </outline>
</glyph>
<glyph name="lslash" format="1">
  <advance width="610"/>
  <unicode hex="0142"/>
  <outline>
    <contour>
      <point x="173" y="0" type="line"/>
      <point x="452" y="0" type="line"/>
      <point x="452" y="964" type="line"/>
      <point x="591" y="1027" type="line"/>
      <point x="591" y="1211" type="line"/>
      <point x="452" y="1149" type="line"/>
      <point x="452" y="1658" type="line"/>
      <point x="173" y="1658" type="line"/>
      <point x="173" y="1025" type="line"/>
      <point x="34" y="963" type="line"/>
      <point x="34" y="777" type="line"/>
      <point x="173" y="840" type="line"/>
    </contour>
  </outline>
</glyph>
<glyph name="tbar" format="1">
  <advance width="582"/>
  <unicode hex="0167"/>
  <outline>
    <contour>
      <point x="628" y="660" type="line"/>
      <point x="628" y="790" type="line"/>
      <point x="41" y="790" type="line"/>
      <point x="41" y="660" type="line"/>
    </contour>
    <component base="t"/>
  </outline>
</glyph>
<glyph name="uni0237" format="1">
  <advance width="512"/>
  <unicode hex="0237"/>
  <outline>
    <contour>
      <point x="-32" y="-327" type="line"/>
      <point x="9" y="-341"/>
      <point x="63" y="-347"/>
      <point x="113" y="-347" type="curve" smooth="yes"/>
      <point x="304" y="-347"/>
      <point x="412" y="-231"/>
      <point x="412" y="-45" type="curve" smooth="yes"/>
      <point x="412" y="1184" type="line"/>
      <point x="133" y="1184" type="line"/>
      <point x="133" y="-14" type="line" smooth="yes"/>
      <point x="133" y="-91"/>
      <point x="99" y="-134"/>
      <point x="27" y="-134" type="curve" smooth="yes"/>
      <point x="9" y="-134"/>
      <point x="-16" y="-130"/>
      <point x="-32" y="-127" type="curve"/>
    </contour>
  </outline>
</glyph>
<glyph name="tilde" format="1">
  <advance width="881"/>
  <unicode hex="02DC"/>
  <outline>
    <contour>
      <point x="606" y="1399" type="curve" smooth="yes"/>
      <point x="735" y="1402"/>
      <point x="764" y="1523"/>
      <point x="764" y="1658" type="curve"/>
      <point x="625" y="1658" type="line"/>
      <point x="625" y="1602"/>
      <point x="613" y="1575"/>
      <point x="576" y="1578" type="curve" smooth="yes"/>
      <point x="524" y="1580"/>
      <point x="409" y="1677"/>
      <point x="300" y="1673" type="curve" smooth="yes"/>
      <point x="162" y="1668"/>
      <point x="123" y="1563"/>
      <point x="123" y="1415" type="curve"/>
      <point x="269" y="1415" type="line"/>
      <point x="269" y="1467"/>
      <point x="282" y="1498"/>
      <point x="320" y="1498" type="curve" smooth="yes"/>
      <point x="388" y="1498"/>
      <point x="507" y="1395"/>
    </contour>
  </outline>
</glyph>
<glyph name="afii10059" format="1">
  <advance width="1655"/>
  <unicode hex="040A"/>
  <outline>
    <contour>
      <point x="1065" y="0" type="line"/>
      <point x="1398" y="0"/>
      <point x="1595" y="110"/>
      <point x="1595" y="485" type="curve" smooth="yes"/>
      <point x="1595" y="850"/>
      <point x="1417" y="964"/>
      <point x="1072" y="964" type="curve" smooth="yes"/>
      <point x="1042" y="964" type="line"/>
      <point x="1042" y="1660" type="line"/>
      <point x="740" y="1660" type="line"/>
      <point x="740" y="974" type="line"/>
      <point x="429" y="974" type="line"/>
      <point x="429" y="1660" type="line"/>
      <point x="127" y="1660" type="line"/>
      <point x="127" y="1" type="line"/>
      <point x="429" y="1" type="line"/>
      <point x="429" y="751" type="line"/>
      <point x="740" y="751" type="line"/>
      <point x="740" y="1" type="line"/>
    </contour>
    <contour>
      <point x="1042" y="206" type="line"/>
      <point x="1042" y="753" type="line"/>
      <point x="1061" y="753" type="line" smooth="yes"/>
      <point x="1257" y="753"/>
      <point x="1313" y="668"/>
      <point x="1314" y="489" type="curve" smooth="yes"/>
      <point x="1316" y="259"/>
      <point x="1239" y="206"/>
      <point x="1066" y="206" type="curve" smooth="yes"/>
    </contour>
  </outline>
</glyph>
<glyph name="afii10029" format="1">
  <advance width="1260"/>
  <unicode hex="041B"/>
  <outline>
    <contour>
      <point x="4" y="0" type="line"/>
      <point x="468" y="-32"/>
      <point x="521" y="224"/>
      <point x="554" y="779" type="curve" smooth="yes"/>
      <point x="590" y="1432" type="line"/>
      <point x="831" y="1432" type="line"/>
      <point x="831" y="0" type="line"/>
      <point x="1133" y="0" type="line"/>
      <point x="1133" y="1658" type="line"/>
      <point x="324" y="1658" type="line"/>
      <point x="269" y="810" type="line" smooth="yes"/>
      <point x="232" y="252"/>
      <point x="182" y="213"/>
      <point x="4" y="218" type="curve"/>
    </contour>
  </outline>
</glyph>
<glyph name="afii10039" format="1">
  <advance width="1018"/>
  <unicode hex="0425"/>
  <outline>
    <contour>
      <point x="20" y="0" type="line"/>
      <point x="284" y="0" type="line"/>
      <point x="487" y="556" type="line"/>
      <point x="719" y="0" type="line"/>
      <point x="1001" y="0" type="line"/>
      <point x="657" y="827" type="line"/>
      <point x="980" y="1658" type="line"/>
      <point x="715" y="1658" type="line"/>
      <point x="527" y="1144" type="line"/>
      <point x="313" y="1658" type="line"/>
      <point x="29" y="1658" type="line"/>
      <point x="354" y="880" type="line"/>
    </contour>
  </outline>
</glyph>
<glyph name="afii10041" format="1">
  <advance width="1169"/>
  <unicode hex="0427"/>
  <outline>
    <contour>
      <point x="740" y="0" type="line"/>
      <point x="1041" y="0" type="line"/>
      <point x="1041" y="1658" type="line"/>
      <point x="740" y="1658" type="line"/>
      <point x="740" y="913" type="line"/>
      <point x="680" y="901"/>
      <point x="629" y="896"/>
      <point x="587" y="896" type="curve" smooth="yes"/>
      <point x="413" y="896"/>
      <point x="379" y="973"/>
      <point x="379" y="1101" type="curve" smooth="yes"/>
      <point x="379" y="1658" type="line"/>
      <point x="94" y="1658" type="line"/>
      <point x="94" y="1100" type="line" smooth="yes"/>
      <point x="94" y="842"/>
      <point x="260" y="706"/>
      <point x="518" y="706" type="curve" smooth="yes"/>
      <point x="579" y="706"/>
      <point x="656" y="713"/>
      <point x="740" y="729" type="curve"/>
    </contour>
  </outline>
</glyph>
<glyph name="afii10049" format="1">
  <advance width="1174"/>
  <unicode hex="042F"/>
  <outline>
    <contour>
      <point x="21" y="0" type="line"/>
      <point x="353" y="0" type="line"/>
      <point x="619" y="671" type="line"/>
      <point x="621" y="671"/>
      <point x="653" y="671"/>
      <point x="655" y="671" type="curve"/>
      <point x="745" y="671" type="line"/>
      <point x="745" y="0" type="line"/>
      <point x="1047" y="0" type="line"/>
      <point x="1047" y="1658" type="line"/>
      <point x="674" y="1658" type="line" smooth="yes"/>
      <point x="296" y="1658"/>
      <point x="127" y="1503"/>
      <point x="127" y="1183" type="curve" smooth="yes"/>
      <point x="127" y="961"/>
      <point x="222" y="811"/>
      <point x="356" y="741" type="curve"/>
    </contour>
    <contour>
      <point x="689" y="885" type="line"/>
      <point x="480" y="885"/>
      <point x="410" y="992"/>
      <point x="410" y="1183" type="curve" smooth="yes"/>
      <point x="410" y="1365"/>
      <point x="500" y="1447"/>
      <point x="684" y="1447" type="curve" smooth="yes"/>
      <point x="745" y="1447" type="line"/>
      <point x="745" y="885" type="line"/>
    </contour>
  </outline>
</glyph>
<glyph name="afii10077" format="1">
  <advance width="1074"/>
  <unicode hex="043B"/>
  <outline>
    <contour>
      <point x="33" y="-7" type="line"/>
      <point x="58" y="-10"/>
      <point x="94" y="-11"/>
      <point x="113" y="-11" type="curve" smooth="yes"/>
      <point x="392" y="-11"/>
      <point x="467" y="108"/>
      <point x="495" y="613" type="curve" smooth="yes"/>
      <point x="518" y="983" type="line"/>
      <point x="687" y="983" type="line"/>
      <point x="687" y="0" type="line"/>
      <point x="966" y="0" type="line"/>
      <point x="966" y="1184" type="line"/>
      <point x="278" y="1184" type="line"/>
      <point x="242" y="628" type="line" smooth="yes"/>
      <point x="223" y="293"/>
      <point x="210" y="183"/>
      <point x="33" y="193" type="curve"/>
    </contour>
  </outline>
</glyph>
<glyph name="afii10085" format="1">
  <advance width="881"/>
  <unicode hex="0443"/>
  <outline>
    <contour>
      <point x="113" y="-335" type="line"/>
      <point x="405" y="-335"/>
      <point x="512" y="-285"/>
      <point x="575" y="-6" type="curve" smooth="yes"/>
      <point x="851" y="1184" type="line"/>
      <point x="592" y="1184" type="line"/>
      <point x="503" y="648" type="line"/>
      <point x="446" y="284" type="line"/>
      <point x="380" y="649" type="line"/>
      <point x="275" y="1184" type="line"/>
      <point x="26" y="1184" type="line"/>
      <point x="289" y="84" type="line" smooth="yes"/>
      <point x="330" y="-93"/>
      <point x="294" y="-120"/>
      <point x="102" y="-121" type="curve"/>
    </contour>
  </outline>
</glyph>
<glyph name="afii10096" format="1">
  <advance width="1299"/>
  <unicode hex="044E"/>
  <outline>
    <contour>
      <point x="866" y="-19" type="curve" smooth="yes"/>
      <point x="1105" y="-19"/>
      <point x="1212" y="136"/>
      <point x="1212" y="396" type="curve" smooth="yes"/>
      <point x="1212" y="787" type="line" smooth="yes"/>
      <point x="1212" y="1047"/>
      <point x="1105" y="1202"/>
      <point x="866" y="1202" type="curve" smooth="yes"/>
      <point x="626" y="1202"/>
      <point x="522" y="1047"/>
      <point x="522" y="787" type="curve" smooth="yes"/>
      <point x="522" y="690" type="line"/>
      <point x="367" y="690" type="line"/>
      <point x="367" y="1184" type="line"/>
      <point x="107" y="1184" type="line"/>
      <point x="107" y="0" type="line"/>
      <point x="367" y="0" type="line"/>
      <point x="367" y="499" type="line"/>
      <point x="522" y="499" type="line"/>
      <point x="522" y="396" type="line" smooth="yes"/>
      <point x="522" y="136"/>
      <point x="626" y="-19"/>
    </contour>
    <contour>
      <point x="866" y="185" type="curve" smooth="yes"/>
      <point x="780" y="185"/>
      <point x="774" y="279"/>
      <point x="774" y="383" type="curve" smooth="yes"/>
      <point x="774" y="800" type="line" smooth="yes"/>
      <point x="774" y="903"/>
      <point x="780" y="999"/>
      <point x="866" y="999" type="curve" smooth="yes"/>
      <point x="953" y="999"/>
      <point x="959" y="904"/>
      <point x="959" y="800" type="curve" smooth="yes"/>
      <point x="959" y="383" type="line" smooth="yes"/>
      <point x="959" y="278"/>
      <point x="953" y="185"/>
    </contour>
  </outline>
</glyph>
<glyph name="quotesinglbase" format="1">
  <advance width="572"/>
  <unicode hex="201A"/>
  <outline>
    <contour>
      <point x="220" y="-253" type="line"/>
      <point x="394" y="-253"/>
      <point x="448" y="-127"/>
      <point x="452" y="102" type="curve" smooth="yes"/>
      <point x="453" y="124"/>
      <point x="453" y="289"/>
      <point x="453" y="317" type="curve"/>
      <point x="179" y="317" type="line"/>
      <point x="179" y="55" type="line"/>
      <point x="306" y="55" type="line"/>
      <point x="306" y="-84"/>
      <point x="283" y="-157"/>
      <point x="188" y="-157" type="curve"/>
    </contour>
  </outline>
</glyph>
<glyph name="quotedblbase" format="1">
  <advance width="974"/>
  <unicode hex="201E"/>
  <outline>
    <contour>
      <point x="214" y="-251" type="line"/>
      <point x="388" y="-251"/>
      <point x="442" y="-125"/>
      <point x="446" y="104" type="curve" smooth="yes"/>
      <point x="447" y="126"/>
      <point x="447" y="291"/>
      <point x="447" y="319" type="curve"/>
      <point x="173" y="319" type="line"/>
      <point x="173" y="57" type="line"/>
      <point x="300" y="57" type="line"/>
      <point x="300" y="-82"/>
      <point x="277" y="-155"/>
      <point x="182" y="-155" type="curve"/>
    </contour>
    <contour>
      <point x="655" y="-251" type="line"/>
      <point x="829" y="-251"/>
      <point x="883" y="-125"/>
      <point x="887" y="104" type="curve" smooth="yes"/>
      <point x="888" y="126"/>
      <point x="888" y="291"/>
      <point x="888" y="319" type="curve"/>
      <point x="614" y="319" type="line"/>
      <point x="614" y="57" type="line"/>
      <point x="741" y="57" type="line"/>
      <point x="741" y="-82"/>
      <point x="718" y="-155"/>
      <point x="623" y="-155" type="curve"/>
    </contour>
  </outline>
</glyph>
<glyph name="trademark" format="1">
  <advance width="1633"/>
  <unicode hex="2122"/>
  <outline>
    <contour>
      <point x="751" y="710" type="line"/>
      <point x="910" y="710" type="line"/>
      <point x="910" y="1259" type="line"/>
      <point x="1087" y="710" type="line"/>
      <point x="1174" y="710" type="line"/>
      <point x="1344" y="1258" type="line"/>
      <point x="1344" y="710" type="line"/>
      <point x="1503" y="710" type="line"/>
      <point x="1503" y="1658" type="line"/>
      <point x="1316" y="1658" type="line"/>
      <point x="1125" y="1048" type="line"/>
      <point x="946" y="1658" type="line"/>
      <point x="751" y="1658" type="line"/>
    </contour>
    <contour>
      <point x="297" y="710" type="line"/>
      <point x="493" y="710" type="line"/>
      <point x="493" y="1492" type="line"/>
      <point x="660" y="1492" type="line"/>
      <point x="660" y="1658" type="line"/>
      <point x="122" y="1658" type="line"/>
      <point x="122" y="1492" type="line"/>
      <point x="297" y="1492" type="line"/>
    </contour>
  </outline>
</glyph>
<glyph name="product" format="1">
  <advance width="1188"/>
  <unicode hex="220F"/>
  <outline>
    <contour>
      <point x="117" y="-390" type="line"/>
      <point x="393" y="-390" type="line"/>
      <point x="393" y="1442" type="line"/>
      <point x="795" y="1442" type="line"/>
      <point x="795" y="-390" type="line"/>
      <point x="1071" y="-390" type="line"/>
      <point x="1071" y="1658" type="line"/>
      <point x="117" y="1658" type="line"/>
    </contour>
  </outline>
</glyph>
